# AST/ASF file generated using VICON BodyLanguage
# -----------------------------------------------
:version 1.10
:name VICON
:units
  mass 1.0
  length 0.45
  angle deg
:documentation
   .ast/.asf automatically generated from VICON data using
   VICON BodyBuilder and BodyLanguage model FoxedUp or BRILLIANT.MOD
:root
   order TX TY TZ RX RY RZ
   axis XYZ
   position 0 0 0  
   orientation 0 0 0 
:bonedata
  begin
     id 1 
     name lhipjoint
     direction 0.521689 -0.742065 0.420928 
     length 2.47002 
     axis 0 0 0  XYZ
  end
  begin
     id 2 
     name lfemur
     direction 0.34202 -0.939693 0  
     length 7.24654  
     axis 0 0 20  XYZ
    dof rx ry rz
    limits (-160.0 20.0)
           (-70.0 70.0)
           (-60.0 70.0)
  end
  begin
     id 3 
     name ltibia
     direction 0.34202 -0.939693 0   
     length 8.04849   
     axis 0 0 20   XYZ
    dof rx
    limits (-10.0 170.0)
  end
  begin
     id 4 
     name lfoot
     direction 0.0745411 -0.2048 0.975961   
     length 1.72367   
     axis -90 7.62852e-016 20   XYZ
    dof rx rz
    limits (-45.0 90.0)
           (-70.0 20.0)
  end
  begin
     id 5 
     name ltoes
     direction 1.53556e-011 -4.21901e-011 1   
     length 0.87311   
     axis -90 7.62852e-016 20   XYZ
    dof rx
    limits (-90.0 20.0)
  end
  begin
     id 6 
     name rhipjoint
     direction -0.52849 -0.738415 0.418857   
     length 2.48223  
     axis 0 0 0  XYZ 
  end
  begin
     id 7 
     name rfemur
     direction -0.34202 -0.939693 0   
     length 7.15571   
     axis 0 0 -20   XYZ
    dof rx ry rz
    limits (-160.0 20.0)
           (-70.0 70.0)
           (-70.0 60.0)
  end
  begin
     id 8 
     name rtibia
     direction -0.34202 -0.939693 0   
     length 7.81659   
     axis 0 0 -20   XYZ
    dof rx
    limits (-10.0 170.0)
 end
 begin
     id 9 
     name rfoot
     direction -0.0917348 -0.252039 0.963359   
     length 1.84382  
     axis -90 -7.62852e-016 -20   XYZ
    dof rx rz
    limits (-45.0 90.0)
           (-20.0 70.0)
  end
  begin
     id 10 
     name rtoes
     direction -1.53551e-011 -4.21879e-011 1   
     length 0.927771   
     axis -90 -7.62852e-016 -20   XYZ
    dof rx
    limits (-90.0 20.0)
  end
  begin
     id 11 
     name lowerback
     direction 0.00583058 0.999822 0.0179296   
     length 2.1429   
     axis 0 0 0   XYZ
    dof rx ry rz
    limits (-20.0 45.0)
           (-30.0 30.0)
           (-30.0 30.0)
  end
  begin
     id 12 
     name upperback
     direction -0.0137999 0.999752 -0.0175071   
     length 2.14252   
     axis 0 0 0   XYZ
    dof rx ry rz
    limits (-20.0 45.0)
           (-30.0 30.0)
           (-30.0 30.0)
  end
  begin
     id 13 
     name thorax
     direction -0.0158036 0.99955 -0.0254909   
     length 2.1383   
     axis 0 0 0   XYZ
    dof rx ry rz
    limits (-20.0 45.0)
           (-30.0 30.0)
           (-30.0 30.0)
  end
  begin
     id 14 
     name lowerneck
     direction -0.0101179 0.999403 -0.0330262   
     length 1.65808   
     axis 0 0 0   XYZ
    dof rx ry rz
    limits (-20.0 45.0)
           (-30.0 30.0)
           (-30.0 30.0)
  end
  begin
     id 15 
     name upperneck
     direction 0.0497734 0.995978 -0.074501   
     length 1.5897   
     axis 0 0 0   XYZ
    dof rx ry rz
    limits (-20.0 45.0)
           (-30.0 30.0)
           (-30.0 30.0)
  end
  begin
     id 16
     name head
     direction 0.0189524 0.999519 -0.0245438  
     length 1.74024  
     axis 0 0 0   XYZ
    dof rx ry rz
    limits (-20.0 45.0)
           (-30.0 30.0)
           (-30.0 30.0)
  end
  begin
     id 17 
     name lclavicle
     direction 0.945604 0.324422 0.0241537  
     length 3.59089  
     axis 0 0 0   XYZ
    dof ry rz
    limits (-20.0 10.0)
           (0.0 20.0)
  end
  begin
     id 18 
     name lhumerus
     direction 1 -4.48964e-011 -2.63524e-027   
     length 5.2391   
     axis 180 -30 -90   XYZ
    dof rx ry rz
    limits (-60.0 90.0)
           (-90.0 90.0)
           (-90.0 90.0)
  end
  begin
     id 19
     name lradius
     direction 1 -4.48969e-011 3.86978e-028   
     length 3.31467   
     axis 180 -30 -90   XYZ
    dof rx
    limits (-10.0 170.0)
  end
  begin
     id 20
     name lwrist
     direction 1 -4.48963e-011 7.20928e-028   
     length 1.65734   
     axis -5.52449e-016 90 90   XYZ
    dof ry
    limits (-180.0 0.0)
 end
  begin
     id 21 
     name lhand
     direction 1 -4.48964e-011 1.44186e-027   
     length 0.9659   
     axis -9.20027e-016 90 90   XYZ
    dof rx rz
    limits (-90.0 90.0)
           (-45.0 45.0)
  end
  begin
     id 22 
     name lfingers
     direction 1 -4.48965e-011 2.88371e-027   
     length 0.778733   
     axis -1.84005e-015 90 90   XYZ
    dof rx
    limits (0.0 90.0)
  end
  begin
     id 23
     name lthumb
     direction 0.707107 -6.34931e-011 0.707107   
     length 1.11811   
     axis -90 45 2.85299e-015   XYZ
    dof rx rz
    limits (-45.0 45.0)
           (-45.0 45.0)
  end
  begin
     id 24 
     name rclavicle
     direction -0.923762 0.370785 0.0958234   
     length 3.54196  
     axis 0 0 0   XYZ 
    dof ry rz
    limits (-10.0 20.0)
           (-20.0 0.0)
  end
  begin
     id 25 
     name rhumerus
     direction -1 -4.48966e-011 1.18702e-017  
     length 5.30252   
     axis 180 30 90   XYZ
    dof rx ry rz
    limits (-90.0 60.0)
           (-90.0 90.0)
           (-90.0 90.0)
  end
  begin
     id 26 
     name rradius
     direction -1 -4.48966e-011 4.46736e-027   
     length 3.67875   
     axis 180 30 90   XYZ
    dof rx
    limits (-10.0 170.0)
  end
  begin
     id 27 
     name rwrist
     direction -1 -4.48966e-011 7.20928e-028   
     length 1.83937   
     axis -5.52449e-016 -90 -90   XYZ
    dof ry
    limits (-180.0 0.0)
  end
  begin
     id 28
     name rhand
     direction -1 -4.48973e-011 1.44186e-027   
     length 0.594811   
     axis -9.20027e-016 -90 -90   XYZ
    dof rx rz
    limits (-90.0 90.0)
           (-45.0 45.0)
  end
  begin
     id 29
     name rfingers
     direction -1 -4.48963e-011 2.88371e-027   
     length 0.479552   
     axis -1.84005e-015 -90 -90   XYZ
    dof rx
    limits (0.0 90.0)
  end
  begin
     id 30
     name rthumb
     direction -0.707107 -6.34932e-011 0.707107   
     length 0.688544   
     axis -90 -45 -2.85299e-015   XYZ
    dof rx rz
    limits (-45.0 45.0)
           (-45.0 45.0)
  end
:hierarchy
  begin
    root lhipjoint rhipjoint lowerback
    lhipjoint lfemur
    lfemur ltibia
    ltibia lfoot
    lfoot ltoes
    rhipjoint rfemur
    rfemur rtibia
    rtibia rfoot
    rfoot rtoes
    lowerback upperback
    upperback thorax
    thorax lowerneck lclavicle rclavicle
    lowerneck upperneck
    upperneck head
    lclavicle lhumerus
    lhumerus lradius
    lradius lwrist
    lwrist lhand lthumb
    lhand lfingers
    rclavicle rhumerus
    rhumerus rradius
    rradius rwrist
    rwrist rhand rthumb
    rhand rfingers
  end

#!OML:ASF E:\acrobat2\Project_11_07_03\Capture day 1\Session 1\Acrobat.ASF
:FULLY-SPECIFIED
:DEGREES
1041
root 8.10967 21.1922 25.0234 409.813 -87.237 -41.9696
lowerback -11.3305 1.40779 0.425076
upperback -6.61782 1.5505 -1.62967
thorax -0.494046 0.614018 -1.76069
lowerneck 0.353064 -2.04695 1.75703
upperneck 12.5353 -3.36552 2.49663
head 4.04658 -1.59417 0.400338
rclavicle 7.55382e-015 1.35174e-014
rhumerus 77.5758 -39.426 -38.6505
rradius 34.1266
rwrist -9.00461
rhand -25.1812 -24.0909
rfingers 7.12502
rthumb 1.33655 -54.0665
lclavicle 7.55382e-015 1.35174e-014
lhumerus -44.9596 0.552675 77.7672
lradius 18.3859
lwrist 13.8689
lhand 24.1764 -12.7251
lfingers 7.12502
lthumb 48.404 9.29705
rfemur 3.91347 -2.12248 25.8831
rtibia 7.56651
rfoot -10.966 -11.2837
rtoes 40.5001
lfemur -10.2388 -1.4972 -17.5121
ltibia 30.7229
lfoot -12.9089 -9.28973
ltoes 11.1095
1042
root 8.10604 21.1924 25.0229 409.765 -87.1715 -41.9039
lowerback -11.3091 1.40892 0.524272
upperback -6.60124 1.54459 -1.63406
thorax -0.485768 0.609139 -1.82186
lowerneck 0.371114 -2.04885 1.73682
upperneck 12.4739 -3.36998 2.5571
head 4.02287 -1.59538 0.42424
rclavicle 1.71949e-014 -7.95139e-015
rhumerus 77.7198 -39.4267 -38.8567
rradius 34.1038
rwrist -8.95237
rhand -25.1883 -24.0657
rfingers 7.12502
rthumb 1.32973 -54.0413
lclavicle 1.71949e-014 -7.95139e-015
lhumerus -44.8067 0.820433 77.5555
lradius 18.2314
lwrist 13.5328
lhand 24.2175 -12.8017
lfingers 7.12502
lthumb 48.4418 9.20231
rfemur 3.98282 -2.13913 25.9265
rtibia 7.43049
rfoot -10.9326 -11.3393
rtoes 40.5648
lfemur -10.2671 -1.5429 -17.455
ltibia 30.7632
lfoot -12.9143 -9.30063
ltoes 10.8486
1043
root 8.10258 21.1924 25.0226 409.669 -87.0959 -41.7963
lowerback -11.2737 1.40548 0.634377
upperback -6.58536 1.53182 -1.63699
thorax -0.48586 0.600592 -1.88867
lowerneck 0.570418 -2.08759 2.06494
upperneck 12.1976 -3.37152 2.20711
head 3.87131 -1.59896 0.255539
rclavicle -1.59028e-014 1.51076e-014
rhumerus 77.8728 -39.4055 -39.0673
rradius 34.0687
rwrist -8.87978
rhand -25.2043 -24.0637
rfingers 7.12502
rthumb 1.31422 -54.0394
lclavicle -1.59028e-014 1.51076e-014
lhumerus -44.6625 1.05441 77.3614
lradius 18.0884
lwrist 13.2504
lhand 24.2804 -12.8886
lfingers 7.12502
lthumb 48.4997 9.08767
rfemur 4.04785 -2.16486 25.9748
rtibia 7.31273
rfoot -10.9019 -11.3782
rtoes 40.6412
lfemur -10.286 -1.58659 -17.3895
ltibia 30.7969
lfoot -12.9178 -9.31168
ltoes 10.6296
1044
root 8.09935 21.1923 25.0226 409.481 -87.0131 -41.597
lowerback -11.2247 1.39647 0.749187
upperback -6.57457 1.51113 -1.63696
thorax -0.498944 0.587859 -1.9562
lowerneck 0.749937 -2.12613 2.40804
upperneck 11.9496 -3.37083 1.81408
head 3.73399 -1.60178 0.0712781
rclavicle 1.08338e-014 5.56597e-015
rhumerus 78.0581 -39.3542 -39.3045
rradius 34.0083
rwrist -8.77132
rhand -25.2221 -24.0717
rfingers 7.12502
rthumb 1.29708 -54.0475
lclavicle 1.08338e-014 5.56597e-015
lhumerus -44.5532 1.18444 77.2253
lradius 17.987
lwrist 13.0663
lhand 24.3552 -13.0056
lfingers 7.12502
lthumb 48.5686 8.9375
rfemur 4.09976 -2.19904 26.0236
rtibia 7.21481
rfoot -10.8742 -11.4053
rtoes 40.7097
lfemur -10.3043 -1.61495 -17.3205
ltibia 30.8211
lfoot -12.9092 -9.33537
ltoes 10.5254
1045
root 8.09634 21.1924 25.023 408.964 -86.9309 -41.0521
lowerback -11.1773 1.38258 0.855024
upperback -6.57126 1.48436 -1.64074
thorax -0.519527 0.571912 -2.02332
lowerneck 0.908848 -2.17129 2.75111
upperneck 11.7207 -3.37926 1.4042
head 3.60844 -1.60913 -0.117787
rclavicle -1.59028e-014 4.77083e-015
rhumerus 78.2386 -39.29 -39.5163
rradius 33.9314
rwrist -8.66327
rhand -25.2249 -24.0806
rfingers 7.12502
rthumb 1.29433 -54.0564
lclavicle -1.59028e-014 4.77083e-015
lhumerus -44.4855 1.13032 77.1969
lradius 17.946
lwrist 13.0548
lhand 24.4104 -13.1403
lfingers 7.12502
lthumb 48.6193 8.7783
rfemur 4.12177 -2.24559 26.0576
rtibia 7.1371
rfoot -10.8495 -11.4231
rtoes 40.767
lfemur -10.3398 -1.62502 -17.265
ltibia 30.8328
lfoot -12.8701 -9.38278
ltoes 10.6218
1046
root 8.09342 21.1927 25.0236 408.108 -86.8565 -40.1461
lowerback -11.1409 1.36292 0.942152
upperback -6.57653 1.45091 -1.65004
thorax -0.543871 0.552585 -2.08626
lowerneck 0.964661 -2.19285 2.90259
upperneck 11.6268 -3.38488 1.21246
head 3.55842 -1.61336 -0.204721
rclavicle -3.57812e-015 1.98785e-014
rhumerus 78.3912 -39.2221 -39.6886
rradius 33.8649
rwrist -8.57754
rhand -25.2198 -24.0895
rfingers 7.12502
rthumb 1.29927 -54.0653
lclavicle -3.57812e-015 1.98785e-014
lhumerus -44.457 0.916279 77.2636
lradius 17.96
lwrist 13.2056
lhand 24.4399 -13.2751
lfingers 7.12502
lthumb 48.6464 8.63034
rfemur 4.10176 -2.30073 26.0738
rtibia 7.09548
rfoot -10.8422 -11.4277
rtoes 40.8244
lfemur -10.3958 -1.61556 -17.2313
ltibia 30.8273
lfoot -12.804 -9.44262
ltoes 10.8529
1047
root 8.0903 21.1934 25.0232 407.024 -86.806 -38.9908
lowerback -11.1216 1.33644 0.986508
upperback -6.59016 1.41134 -1.66198
thorax -0.569021 0.530828 -2.12829
lowerneck 0.881789 -2.16953 2.7545
upperneck 11.726 -3.37486 1.37788
head 3.61485 -1.60724 -0.127305
rclavicle -4.47266e-015 0
rhumerus 78.5015 -39.15 -39.8252
rradius 33.8364
rwrist -8.52542
rhand -25.2273 -24.1097
rfingers 7.12502
rthumb 1.29203 -54.0856
lclavicle -4.47266e-015 0
lhumerus -44.4556 0.639703 77.3704
lradius 18.0085
lwrist 13.4409
lhand 24.4635 -13.4017
lfingers 7.12502
lthumb 48.6682 8.49321
rfemur 4.03502 -2.34928 26.0689
rtibia 7.1015
rfoot -10.8669 -11.4195
rtoes 40.9165
lfemur -10.4685 -1.59767 -17.2274
ltibia 30.8025
lfoot -12.7265 -9.48959
ltoes 11.1047
1048
root 8.08671 21.1944 25.0201 405.907 -86.7895 -37.7834
lowerback -11.1243 1.30866 0.969044
upperback -6.60674 1.37493 -1.6713
thorax -0.586751 0.512135 -2.13212
lowerneck 0.692734 -2.10921 2.37276
upperneck 11.9689 -3.35035 1.82773
head 3.75266 -1.59152 0.081495
rclavicle 1.39149e-014 2.38542e-015
rhumerus 78.5605 -39.0826 -39.9228
rradius 33.8562
rwrist -8.49994
rhand -25.2643 -24.1534
rfingers 7.12502
rthumb 1.25628 -54.1295
lclavicle 1.39149e-014 2.38542e-015
lhumerus -44.4534 0.368126 77.4802
lradius 18.0668
lwrist 13.6957
lhand 24.495 -13.5137
lfingers 7.12502
lthumb 48.6971 8.36717
rfemur 3.9236 -2.37567 26.0486
rtibia 7.15186
rfoot -10.9246 -11.3987
rtoes 41.0577
lfemur -10.5541 -1.58304 -17.248
ltibia 30.7616
lfoot -12.6487 -9.5121
ltoes 11.3142
1049
root 8.08272 21.1957 25.014 404.982 -86.8043 -36.7584
lowerback -11.1396 1.28532 0.895647
upperback -6.62152 1.34923 -1.66999
thorax -0.596706 0.500565 -2.09206
lowerneck 0.819642 -2.12111 2.50459
upperneck 11.7982 -3.34037 1.67515
head 3.66255 -1.58885 0.0122365
rclavicle 1.799e-014 -2.22639e-014
rhumerus 78.6027 -39.0216 -40.0082
rradius 33.9056
rwrist -8.47636
rhand -25.3295 -24.2061
rfingers 7.12502
rthumb 1.19337 -54.1825
lclavicle 1.799e-014 -2.22639e-014
lhumerus -44.4341 0.143134 77.5753
lradius 18.1157
lwrist 13.9228
lhand 24.5311 -13.601
lfingers 7.12502
lthumb 48.7303 8.26379
rfemur 3.78491 -2.37209 26.0274
rtibia 7.2359
rfoot -11.0125 -11.3633
rtoes 41.2175
lfemur -10.6425 -1.57534 -17.2781
ltibia 30.711
lfoot -12.5773 -9.50738
ltoes 11.4214
1050
root 8.0786 21.1969 25.0051 404.434 -86.8429 -36.1146
lowerback -11.154 1.26656 0.783686
upperback -6.63414 1.33319 -1.65445
thorax -0.605532 0.495256 -2.0145
lowerneck 0.848754 -2.10561 2.46235
upperneck 11.7668 -3.32012 1.71574
head 3.6475 -1.57958 0.0340283
rclavicle -1.35174e-014 -5.56597e-015
rhumerus 78.6631 -38.9619 -40.098
rradius 33.9511
rwrist -8.45486
rhand -25.3908 -24.243
rfingers 7.12502
rthumb 1.13408 -54.2197
lclavicle -1.35174e-014 -5.56597e-015
lhumerus -44.3975 -0.00460982 77.6353
lradius 18.1465
lwrist 14.0873
lhand 24.5543 -13.6435
lfingers 7.12502
lthumb 48.7517 8.21088
rfemur 3.65142 -2.33663 26.0203
rtibia 7.3221
rfoot -11.1148 -11.3188
rtoes 41.3885
lfemur -10.7268 -1.56512 -17.3009
ltibia 30.6608
lfoot -12.5104 -9.48789
ltoes 11.4603
1051
root 8.07453 21.1982 24.9943 404.313 -86.8961 -35.9126
lowerback -11.1574 1.25184 0.655097
upperback -6.64458 1.3243 -1.62939
thorax -0.618293 0.494296 -1.9171
lowerneck 1.02994 -2.13149 2.69508
upperneck 11.5473 -3.313 1.42483
head 3.52613 -1.57978 -0.0961936
rclavicle -7.95139e-015 3.97569e-015
rhumerus 78.7482 -38.8992 -40.1897
rradius 33.975
rwrist -8.44525
rhand -25.4174 -24.2614
rfingers 7.12502
rthumb 1.10842 -54.2383
lclavicle -7.95139e-015 3.97569e-015
lhumerus -44.3489 -0.056016 77.6337
lradius 18.1552
lwrist 14.1329
lhand 24.5592 -13.6449
lfingers 7.12502
lthumb 48.7562 8.20719
rfemur 3.55673 -2.27451 26.0315
rtibia 7.36692
rfoot -11.1993 -11.2795
rtoes 41.5602
lfemur -10.8025 -1.54524 -17.3078
ltibia 30.6227
lfoot -12.4576 -9.4654
ltoes 11.4809
1052
root 8.07067 21.1997 24.9834 404.494 -86.9507 -36.0296
lowerback -11.1432 1.24378 0.54031
upperback -6.65196 1.32343 -1.60477
thorax -0.636812 0.497175 -1.82734
lowerneck 1.08896 -2.13401 2.7264
upperneck 11.492 -3.3052 1.35488
head 3.49371 -1.57794 -0.12274
rclavicle 4.96962e-016 9.54166e-015
rhumerus 78.8621 -38.8325 -40.2979
rradius 33.9693
rwrist -8.43205
rhand -25.4111 -24.2643
rfingers 7.12502
rthumb 1.1145 -54.2411
lclavicle 4.96962e-016 9.54166e-015
lhumerus -44.2942 -0.0378581 77.576
lradius 18.1497
lwrist 14.0409
lhand 24.5449 -13.6308
lfingers 7.12502
lthumb 48.743 8.22776
rfemur 3.52023 -2.2006 26.0559
rtibia 7.33994
rfoot -11.2434 -11.2626
rtoes 41.7144
lfemur -10.8693 -1.53265 -17.3012
ltibia 30.6046
lfoot -12.4345 -9.42998
ltoes 11.4474
1053
root 8.06712 21.2017 24.9739 404.799 -86.9908 -36.2826
lowerback -11.1132 1.24544 0.468012
upperback -6.65282 1.33234 -1.58981
thorax -0.655551 0.503954 -1.77068
lowerneck 0.961619 -2.09922 2.43784
upperneck 11.6699 -3.29641 1.65966
head 3.59115 -1.57253 0.0229618
rclavicle 8.94531e-015 -7.15625e-015
rhumerus 79.0018 -38.7763 -40.4168
rradius 33.9184
rwrist -8.39763
rhand -25.3687 -24.2447
rfingers 7.12502
rthumb 1.15546 -54.2213
lclavicle 8.94531e-015 -7.15625e-015
lhumerus -44.2235 -0.000654305 77.4939
lradius 18.1318
lwrist 13.8572
lhand 24.4948 -13.6295
lfingers 7.12502
lthumb 48.697 8.25145
rfemur 3.54044 -2.1328 26.0881
rtibia 7.23289
rfoot -11.2419 -11.2804
rtoes 41.8606
lfemur -10.9335 -1.54273 -17.2843
ltibia 30.6081
lfoot -12.4395 -9.37624
ltoes 11.3562
1054
root 8.06395 21.204 24.9669 405.012 -87.0123 -36.4543
lowerback -11.0697 1.25352 0.444256
upperback -6.64524 1.34625 -1.58787
thorax -0.671249 0.512039 -1.75444
lowerneck 0.714904 -2.03712 1.93471
upperneck 11.9886 -3.28476 2.22957
head 3.77162 -1.56295 0.29119
rclavicle 4.87022e-015 5.56597e-015
rhumerus 79.1461 -38.7336 -40.5222
rradius 33.833
rwrist -8.34812
rhand -25.3023 -24.216
rfingers 7.12502
rthumb 1.21958 -54.1923
lclavicle 4.87022e-015 5.56597e-015
lhumerus -44.1313 0.0418566 77.4021
lradius 18.096
lwrist 13.6227
lhand 24.4769 -13.6457
lfingers 7.12502
lthumb 48.6805 8.24331
rfemur 3.60206 -2.08176 26.114
rtibia 7.06422
rfoot -11.2018 -11.3298
rtoes 42.0035
lfemur -10.993 -1.57598 -17.2681
ltibia 30.6277
lfoot -12.4715 -9.305
ltoes 11.1689
